{
	"asset":{
		"generator":"Khronos glTF Blender I/O v4.1.62",
		"version":"2.0"
	},
	"extensionsUsed":[
		"KHR_texture_transform"
	],
	"extensionsRequired":[
		"KHR_texture_transform"
	],
	"scene":0,
	"scenes":[
		{
			"name":"Scene",
			"nodes":[
				2
			]
		}
	],
	"nodes":[
		{
			"mesh":0,
			"name":"leaves.001"
		},
		{
			"mesh":1,
			"name":"tronco"
		},
		{
			"children":[
				0,
				1
			],
			"name":"Pine"
		}
	],
	"materials":[
		{
			"alphaMode":"BLEND",
			"doubleSided":true,
			"name":"NOVA FOLHA PINHEIRO",
			"normalTexture":{
				"index":0
			},
			"pbrMetallicRoughness":{
				"baseColorTexture":{
					"index":1
				},
				"metallicFactor":0,
				"metallicRoughnessTexture":{
					"index":2
				}
			}
		},
		{
			"doubleSided":true,
			"name":"pine_bark",
			"normalTexture":{
				"extensions":{
					"KHR_texture_transform":{
						"offset":[
							0,
							-11.800000190734863
						],
						"scale":[
							12.699999809265137,
							12.800000190734863
						]
					}
				},
				"index":3,
				"scale":0.7999999523162842
			},
			"pbrMetallicRoughness":{
				"baseColorTexture":{
					"extensions":{
						"KHR_texture_transform":{
							"offset":[
								0,
								-11.800000190734863
							],
							"scale":[
								12.699999809265137,
								12.800000190734863
							]
						}
					},
					"index":4
				},
				"metallicFactor":0,
				"metallicRoughnessTexture":{
					"extensions":{
						"KHR_texture_transform":{
							"offset":[
								0,
								-11.800000190734863
							],
							"scale":[
								12.699999809265137,
								12.800000190734863
							]
						}
					},
					"index":5
				}
			}
		},
		{
			"doubleSided":true,
			"name":"pine_bark.001",
			"normalTexture":{
				"extensions":{
					"KHR_texture_transform":{
						"offset":[
							0,
							-723.3999633789062
						],
						"scale":[
							724.3999633789062,
							724.3999633789062
						]
					}
				},
				"index":6,
				"scale":0.800000011920929
			},
			"pbrMetallicRoughness":{
				"baseColorTexture":{
					"extensions":{
						"KHR_texture_transform":{
							"offset":[
								0,
								-723.3999633789062
							],
							"scale":[
								724.3999633789062,
								724.3999633789062
							]
						}
					},
					"index":7
				},
				"metallicFactor":0,
				"metallicRoughnessTexture":{
					"extensions":{
						"KHR_texture_transform":{
							"offset":[
								0,
								-723.3999633789062
							],
							"scale":[
								724.3999633789062,
								724.3999633789062
							]
						}
					},
					"index":8
				}
			}
		}
	],
	"meshes":[
		{
			"name":"leaves.003",
			"primitives":[
				{
					"attributes":{
						"POSITION":0,
						"NORMAL":1,
						"TEXCOORD_0":2
					},
					"indices":3,
					"material":0
				}
			]
		},
		{
			"name":"tree.003",
			"primitives":[
				{
					"attributes":{
						"POSITION":4,
						"NORMAL":5,
						"TEXCOORD_0":6
					},
					"indices":7,
					"material":1
				},
				{
					"attributes":{
						"POSITION":8,
						"NORMAL":9,
						"TEXCOORD_0":10
					},
					"indices":11,
					"material":2
				}
			]
		}
	],
	"textures":[
		{
			"sampler":0,
			"source":0
		},
		{
			"sampler":0,
			"source":1
		},
		{
			"sampler":0,
			"source":2
		},
		{
			"sampler":0,
			"source":3
		},
		{
			"sampler":0,
			"source":4
		},
		{
			"sampler":0,
			"source":5
		},
		{
			"sampler":0,
			"source":3
		},
		{
			"sampler":0,
			"source":4
		},
		{
			"sampler":0,
			"source":5
		}
	],
	"images":[
		{
			"mimeType":"image/png",
			"name":"leaf12_normal.exr",
			"uri":"leaf12_normal_exr.png"
		},
		{
			"mimeType":"image/png",
			"name":"TRANS_BASECOLOR-leaf12_opacity.exr",
			"uri":"TRANS_BASECOLOR-leaf12_opacity_exr.png"
		},
		{
			"mimeType":"image/png",
			"name":"leaf12_roughness.exr",
			"uri":"leaf12_roughness_exr.png"
		},
		{
			"mimeType":"image/png",
			"name":"pine_bark_nor_gl",
			"uri":"pine_bark_nor_gl.png"
		},
		{
			"mimeType":"image/jpeg",
			"name":"pine_bark_diff_8k",
			"uri":"pine_bark_diff_8k.jpg"
		},
		{
			"mimeType":"image/png",
			"name":"pine_bark_rough",
			"uri":"pine_bark_rough.png"
		}
	],
	"accessors":[
		{
			"bufferView":0,
			"componentType":5126,
			"count":83724,
			"max":[
				1.3330602645874023,
				5.614294528961182,
				1.4369795322418213
			],
			"min":[
				-1.2985811233520508,
				0.6497940421104431,
				-1.4422823190689087
			],
			"type":"VEC3"
		},
		{
			"bufferView":1,
			"componentType":5126,
			"count":83724,
			"type":"VEC3"
		},
		{
			"bufferView":2,
			"componentType":5126,
			"count":83724,
			"type":"VEC2"
		},
		{
			"bufferView":3,
			"componentType":5125,
			"count":125586,
			"type":"SCALAR"
		},
		{
			"bufferView":4,
			"componentType":5126,
			"count":36273,
			"max":[
				0.12205053120851517,
				4.57774543762207,
				0.11899048089981079
			],
			"min":[
				-0.12205053120851517,
				0,
				-0.11899048089981079
			],
			"type":"VEC3"
		},
		{
			"bufferView":5,
			"componentType":5126,
			"count":36273,
			"type":"VEC3"
		},
		{
			"bufferView":6,
			"componentType":5126,
			"count":36273,
			"type":"VEC2"
		},
		{
			"bufferView":7,
			"componentType":5123,
			"count":215040,
			"type":"SCALAR"
		},
		{
			"bufferView":8,
			"componentType":5126,
			"count":210145,
			"max":[
				1.1150591373443604,
				5.430757999420166,
				1.2252577543258667
			],
			"min":[
				-1.1188844442367554,
				0.6475313901901245,
				-1.2434628009796143
			],
			"type":"VEC3"
		},
		{
			"bufferView":9,
			"componentType":5126,
			"count":210145,
			"type":"VEC3"
		},
		{
			"bufferView":10,
			"componentType":5126,
			"count":210145,
			"type":"VEC2"
		},
		{
			"bufferView":11,
			"componentType":5125,
			"count":831600,
			"type":"SCALAR"
		}
	],
	"bufferViews":[
		{
			"buffer":0,
			"byteLength":1004688,
			"byteOffset":0,
			"target":34962
		},
		{
			"buffer":0,
			"byteLength":1004688,
			"byteOffset":1004688,
			"target":34962
		},
		{
			"buffer":0,
			"byteLength":669792,
			"byteOffset":2009376,
			"target":34962
		},
		{
			"buffer":0,
			"byteLength":502344,
			"byteOffset":2679168,
			"target":34963
		},
		{
			"buffer":0,
			"byteLength":435276,
			"byteOffset":3181512,
			"target":34962
		},
		{
			"buffer":0,
			"byteLength":435276,
			"byteOffset":3616788,
			"target":34962
		},
		{
			"buffer":0,
			"byteLength":290184,
			"byteOffset":4052064,
			"target":34962
		},
		{
			"buffer":0,
			"byteLength":430080,
			"byteOffset":4342248,
			"target":34963
		},
		{
			"buffer":0,
			"byteLength":2521740,
			"byteOffset":4772328,
			"target":34962
		},
		{
			"buffer":0,
			"byteLength":2521740,
			"byteOffset":7294068,
			"target":34962
		},
		{
			"buffer":0,
			"byteLength":1681160,
			"byteOffset":9815808,
			"target":34962
		},
		{
			"buffer":0,
			"byteLength":3326400,
			"byteOffset":11496968,
			"target":34963
		}
	],
	"samplers":[
		{
			"magFilter":9729,
			"minFilter":9987
		}
	],
	"buffers":[
		{
			"byteLength":14823368,
			"uri":"tree.bin"
		}
	]
}
